<svg xmlns="http://www.w3.org/2000/svg" xmlns:xlink="http://www.w3.org/1999/xlink" width="16" height="9" viewBox="0 0 16 9"><defs><path id="a" d="M426.95 9941.95c-.56.05-.75-.74-.42-1.12.7-.84 1.4-1.74 2.1-2.64-6.7-.1-1.36-.85-8.07.1-.47.06-.56-.84-.1-.95 6.48-1.75 1.28-.74 7.85-.53-.94-.8-1.74-1.7-2.4-2.75-.28-.48.2-1.06.66-.95 3.2.95 6.15 2.59 9.05 4.39.38.21.38.9 0 1.11a21.04 21.04 0 0 1-8.67 3.34zm2.9-3.44c-.51.58-.98 1.21-1.45 1.8 2.02-.43 3.9-1.22 5.72-2.28a40.67 40.67 0 0 0-6.19-3.12c.57.68 1.13 1.27 1.7 1.9h.09c.65 0 .75.9.32 1.22.05.16 0 .37-.18.48z"/></defs><use fill="#d6d6d6" xlink:href="#a" transform="translate(-420 -9933)"/></svg>